<?xml version="1.0" encoding="utf-8"?>
<!-- Generator: Adobe Illustrator 26.0.3, SVG Export Plug-In . SVG Version: 6.00 Build 0)  -->
<svg version="1.1" id="Layer_1" xmlns="http://www.w3.org/2000/svg" xmlns:xlink="http://www.w3.org/1999/xlink" x="0px" y="0px"
	 viewBox="0 0 64 64" style="enable-background:new 0 0 64 64;" xml:space="preserve">
<style type="text/css">
	.st0{fill:#484751;}
</style>
<g id="_x32_0_1_">
	<g>
		<polygon class="st0" points="47.4,44 16.6,44 21,33.2 25.5,33.2 25.5,34.2 21.7,34.2 18.1,43 45.9,43 42.3,34.2 38.5,34.2 
			38.5,33.2 43,33.2 		"/>
	</g>
	<g>
		<g>
			<path class="st0" d="M32,39.2l-0.4-0.6c-0.2-0.3-5.3-7.5-6.5-9.8c-0.6-1.1-0.9-2.3-0.9-3.6c0-4.3,3.5-7.8,7.8-7.8
				s7.8,3.5,7.8,7.8c0,1.2-0.3,2.3-0.8,3.4c-1.2,2.4-6.4,9.7-6.6,10L32,39.2z M32,18.4c-3.7,0-6.8,3-6.8,6.8c0,1.1,0.3,2.2,0.8,3.1
				c1,1.9,4.8,7.3,6,9.1c1.3-1.8,5.1-7.3,6.1-9.3c0.4-0.9,0.7-1.9,0.7-3C38.8,21.5,35.7,18.4,32,18.4z"/>
		</g>
		<g>
			<path class="st0" d="M32,28.7c-1.9,0-3.5-1.6-3.5-3.5s1.6-3.5,3.5-3.5c1.9,0,3.5,1.6,3.5,3.5S33.9,28.7,32,28.7z M32,22.8
				c-1.4,0-2.5,1.1-2.5,2.5c0,1.4,1.1,2.5,2.5,2.5c1.4,0,2.5-1.1,2.5-2.5C34.5,23.9,33.4,22.8,32,22.8z"/>
		</g>
	</g>
	<g>
		<rect x="16.9" y="45.6" class="st0" width="30.3" height="1"/>
	</g>
</g>
</svg>
